<?xml version="1.0" encoding="iso-8859-1"?>
<!-- Generator: Adobe Illustrator 19.0.0, SVG Export Plug-In . SVG Version: 6.00 Build 0)  -->
<svg version="1.1" id="Capa_1" xmlns="http://www.w3.org/2000/svg" xmlns:xlink="http://www.w3.org/1999/xlink" x="0px" y="0px"
	 viewBox="0 0 512 512" style="enable-background:new 0 0 512 512;" xml:space="preserve">
<g>
	<g>
		<path d="M490.467,134.542l-211-127.844c-14.473-8.848-32.461-8.848-46.934,0l-211,127.844C8.057,142.775,0,157.13,0,172.921
			c-0.015,15.806,8.042,30.176,21.533,38.423l211.015,129.844c14.503,8.837,32.416,8.837,46.919,0l211-129.844
			c13.491-8.247,21.548-22.617,21.533-38.423C512,157.13,503.943,142.775,490.467,134.542z"/>
	</g>
</g>
<g>
	<g>
		<path d="M504.207,238.099l-209.096,128.68c-24.302,14.823-54.49,14.485-78.179,0.029L7.786,238.109
			C2.935,245.36,0,243.817,0,252.921c-0.015,15.806,8.042,30.176,21.533,38.423l211.015,129.844c14.503,8.837,32.416,8.837,46.919,0
			l211-129.844c13.491-8.247,21.548-12.617,21.533-28.423C512,253.812,509.063,245.354,504.207,238.099z"/>
	</g>
</g>
<g>
	<g>
		<path d="M504.207,318.099l-209.096,128.68c-24.074,14.689-54.094,14.701-78.179,0.029L7.793,318.1
			C2.937,325.354,0,327.935,0,337.045c-0.015,15.806,8.042,30.176,21.533,38.423l211.015,129.843
			c14.503,8.837,32.416,8.837,46.919,0l211-129.844c13.491-8.247,21.548-22.617,21.533-38.423
			C512,327.935,509.063,325.353,504.207,318.099z"/>
	</g>
</g>
<g>
</g>
<g>
</g>
<g>
</g>
<g>
</g>
<g>
</g>
<g>
</g>
<g>
</g>
<g>
</g>
<g>
</g>
<g>
</g>
<g>
</g>
<g>
</g>
<g>
</g>
<g>
</g>
<g>
</g>
</svg>
